<svg width="16" height="24" viewBox="0 0 16 24" fill="none" xmlns="http://www.w3.org/2000/svg">
<path d="M1.33297 11.0635L12.0133 0.383412C12.2603 0.136194 12.59 0 12.9417 0C13.2933 0 13.623 0.136194 13.87 0.383412L14.6566 1.16975C15.1684 1.68213 15.1684 2.51491 14.6566 3.02651L5.68805 11.995L14.6665 20.9735C14.9135 21.2207 15.0499 21.5503 15.0499 21.9017C15.0499 22.2535 14.9135 22.583 14.6665 22.8305L13.88 23.6166C13.6328 23.8638 13.3032 24 12.9516 24C12.6 24 12.2702 23.8638 12.0232 23.6166L1.33297 12.9267C1.08536 12.6787 0.949359 12.3476 0.95014 11.9956C0.949359 11.6422 1.08536 11.3113 1.33297 11.0635Z" fill="#469292"/>
</svg>
