<svg width="16" height="24" viewBox="0 0 16 24" fill="none" xmlns="http://www.w3.org/2000/svg">
<path d="M14.667 11.0635L3.98673 0.383412C3.73971 0.136194 3.40996 0 3.05835 0C2.70674 0 2.37699 0.136194 2.12997 0.383412L1.34344 1.16975C0.831635 1.68213 0.831635 2.51491 1.34344 3.02651L10.3119 11.995L1.33348 20.9735C1.08646 21.2207 0.950073 21.5503 0.950073 21.9017C0.950073 22.2535 1.08646 22.583 1.33348 22.8305L2.12001 23.6166C2.36723 23.8638 2.69679 24 3.0484 24C3.4 24 3.72976 23.8638 3.97678 23.6166L14.667 12.9267C14.9146 12.6787 15.0506 12.3476 15.0499 11.9956C15.0506 11.6422 14.9146 11.3113 14.667 11.0635Z" fill="#469292"/>
</svg>
