<svg width="12" height="13" viewBox="0 0 12 13" fill="none" xmlns="http://www.w3.org/2000/svg">
<path d="M6.71012 3.36C8.12012 3.36 8.72012 3.96 8.72012 5.37H10.0601C10.0601 3.21 8.87012 2.02 6.71012 2.02V3.36ZM9.00012 7.01C8.87141 6.89357 8.70253 6.83163 8.52907 6.83723C8.3556 6.84282 8.19106 6.91552 8.07012 7.04L6.47012 8.68C6.08012 8.61 5.31012 8.36 4.51012 7.57C3.71012 6.77 3.47012 5.99 3.39012 5.61L5.04012 4.01C5.1646 3.88906 5.2373 3.72453 5.24289 3.55106C5.24849 3.37759 5.18655 3.20871 5.07012 3.08L2.60012 0.35C2.48148 0.219749 2.31632 0.141469 2.14038 0.132111C1.96445 0.122753 1.79191 0.183069 1.66012 0.3L0.210122 1.54C0.0947031 1.65822 0.0270369 1.81492 0.0201218 1.98C0.0101218 2.15 -0.179878 6.12 2.89012 9.19C5.57012 11.87 8.94012 12.07 9.86012 12.07C10.0001 12.07 10.0801 12.07 10.1001 12.06C10.2654 12.054 10.4224 11.9862 10.5401 11.87L11.7801 10.42C11.8971 10.2882 11.9574 10.1157 11.948 9.93974C11.9387 9.76381 11.8604 9.59864 11.7301 9.48L9.00012 7.01Z" fill="#469292"/>
</svg>
