<svg width="40" height="40" viewBox="0 0 40 40" fill="none" xmlns="http://www.w3.org/2000/svg">
<g clip-path="url(#clip0)">
<path d="M13.2654 0C12.4045 0 7.04295 0 6.17972 0C6.68911 0.783142 14.8515 13.3323 15.3608 14.1155L17.6804 14.8999L20 14.1155L20.7844 12.5307L20 10.1207C19.1816 8.89075 14.0855 1.23244 13.2654 0Z" fill="#FF6B6B"/>
<path d="M20.0672 10.2216C20.062 10.2137 19.9947 10.1128 20 10.1207V14.1155L21.3246 14.8999L22.6492 14.1155L21.9 11.6875L20.0672 10.2216Z" fill="#FF3D7D"/>
<path d="M20 10.1207C20.9269 11.5184 21.7223 12.7178 22.6491 14.1155L23.7114 14.8999L24.7736 14.1155C25.2755 13.3323 33.3172 0.784946 33.8203 0C32.9593 0 27.5978 0 26.7346 0C25.9161 1.23001 20.8201 8.88824 20 10.1207V10.1207Z" fill="#C1126B"/>
<path d="M16.5125 20.1611L15.3609 19.866C15.3609 18.3022 15.3609 15.028 15.3609 14.1154H20L20.7844 15.292L20 16.4685C19.2006 16.4685 18.5135 16.4685 17.7141 16.4685V19.0272L16.5125 20.1611Z" fill="#FEE05B"/>
<path d="M23.6219 20.1611L24.7735 19.866C24.7735 18.3022 24.7735 15.028 24.7735 14.1154C23.103 14.1154 21.6704 14.1154 20 14.1154V16.4685H22.4204V19.0272L23.6219 20.1611Z" fill="#FEC258"/>
<path d="M9.44891 29.3823C9.44891 35.208 14.1692 39.9633 20 39.9997L20.7844 29.3823L20 18.765C14.1746 18.8013 9.44891 23.5513 9.44891 29.3823V29.3823Z" fill="#FEC258"/>
<path d="M30.6854 29.3823C30.6854 23.4892 25.8672 18.7249 19.9999 18.765V39.9997C25.8693 40.0397 30.6854 35.2732 30.6854 29.3823Z" fill="#FD996B"/>
<path d="M11.8021 29.3823C11.8021 33.9112 15.4675 37.6102 20 37.6465L20.7844 29.3823L20 21.1182C15.4721 21.1545 11.8021 24.8489 11.8021 29.3823V29.3823Z" fill="#FEE05B"/>
<path d="M28.3322 29.3823C28.3322 24.8311 24.6237 21.0866 19.9999 21.1182V37.6466C24.5999 37.678 28.3322 33.9563 28.3322 29.3823Z" fill="#FEC258"/>
<path d="M18.8906 24.7048V27.3444C18.7663 27.2726 19.0567 27.4402 16.5546 25.9958C16.1431 26.7085 15.7895 27.3209 15.378 28.0336C15.6028 28.1634 17.4843 29.2497 17.714 29.3823C17.5303 29.4884 15.6563 30.5704 15.4281 30.7021C15.8396 31.4148 16.1932 32.0273 16.6047 32.74C16.7884 32.6339 18.6624 31.5519 18.8906 31.4202V34.1175H20L20.7844 29.4111L20 24.7047C19.612 24.7048 19.2786 24.7048 18.8906 24.7048V24.7048Z" fill="#FEC258"/>
<path d="M21.2438 31.4203C21.3655 31.4906 21.0813 31.3265 23.5297 32.74C23.9412 32.0273 24.2948 31.4149 24.7063 30.7022C24.4681 30.5647 22.6548 29.5177 22.4203 29.3823C22.6606 29.2437 24.5121 28.1746 24.7563 28.0337C24.3448 27.321 23.9912 26.7085 23.5797 25.9958C23.4553 26.0676 23.7457 25.8999 21.2437 27.3444C21.2437 26.4213 21.2437 25.628 21.2437 24.7048C20.8087 24.7048 20.4349 24.7048 19.9999 24.7048V34.1176H21.2437C21.2438 33.1743 21.2438 32.3637 21.2438 31.4203V31.4203Z" fill="#FD996B"/>
</g>
<defs>
<clipPath id="clip0">
<rect width="40" height="40" fill="white"/>
</clipPath>
</defs>
</svg>
