<svg width="40" height="40" viewBox="0 0 40 40" fill="none" xmlns="http://www.w3.org/2000/svg">
<g clip-path="url(#clip0)">
<path d="M19.9946 19.5745C25.1226 19.5745 29.2797 15.4174 29.2797 10.2893C29.2797 5.16126 25.1226 1.00415 19.9946 1.00415C14.8665 1.00415 10.7094 5.16126 10.7094 10.2893C10.7094 15.4174 14.8665 19.5745 19.9946 19.5745Z" fill="#B6F0FF"/>
<path d="M29.2788 10.289C29.2788 15.4171 25.1222 19.5746 19.9941 19.5746C16.5748 19.5746 13.5871 17.7263 11.9763 14.9734C13.5707 16.5322 15.7517 17.4932 18.1572 17.4932C23.0417 17.4932 27.0016 13.5332 27.0016 8.64871C27.0016 5.88277 25.7322 3.41324 23.7436 1.79285C27.0042 3.233 29.2788 6.49542 29.2788 10.289Z" fill="#73E1FF"/>
<path d="M10.7086 10.2891C10.7086 10.7666 10.7448 11.2356 10.8144 11.6936C10.9755 12.7529 12.2645 13.1862 13.0221 12.4285C13.3157 12.1349 13.4508 11.7191 13.387 11.3088C13.3353 10.9763 13.3081 10.6359 13.3081 10.2891C13.3081 7.09392 15.5617 4.41611 18.5632 3.75931C19.1617 3.62837 19.5899 3.10095 19.5899 2.48829C19.5899 1.66478 18.8326 1.04017 18.0275 1.21368C13.8441 2.11571 10.7086 5.83587 10.7086 10.2891V10.2891Z" fill="#DCFEFF"/>
<path d="M14.7466 5.57924C15.061 5.57924 15.3647 5.46541 15.6014 5.25845C16.0646 4.8533 16.5839 4.51056 17.1462 4.24431C17.5944 4.03213 17.8732 3.57275 17.8732 3.07689C17.8732 2.1183 16.8732 1.49213 16.0077 1.90424C15.2343 2.27252 14.52 2.74463 13.8826 3.30259C12.981 4.09166 13.5485 5.57924 14.7466 5.57924V5.57924Z" fill="#EEFDFF"/>
<path d="M19.7354 14.4907H14.645C14.3626 14.4907 14.0867 14.3727 13.9116 14.1511C13.637 13.8035 13.6545 13.3262 13.9266 13.0031L17.7072 8.51367C18.1164 8.02773 17.9459 7.27195 17.3572 7.03304C17.1889 6.96468 17.0035 6.92976 16.8094 6.93663C16.0848 6.9621 15.5235 7.58484 15.5235 8.30976V8.54718C15.5235 8.89351 15.2428 9.17421 14.8965 9.17421H14.341C13.9947 9.17421 13.714 8.89351 13.714 8.54718V8.3307C13.714 6.69257 14.9436 5.28148 16.5755 5.13859C17.6262 5.04655 18.5832 5.47515 19.2168 6.19491C20.0469 7.13796 20.0372 8.55609 19.2279 9.51718L16.5634 12.6812H19.7354C20.0817 12.6812 20.3624 12.9619 20.3624 13.3082V13.8637C20.3625 14.21 20.0818 14.4907 19.7354 14.4907V14.4907Z" fill="#008CFF"/>
<path d="M25.6564 13.7802V9.60513C25.6564 9.25927 25.376 8.97888 25.0302 8.97888H24.4732C24.1273 8.97888 23.847 9.25927 23.847 9.60513V13.7802C23.847 14.1265 24.1277 14.4072 24.474 14.4072H25.0295C25.3756 14.4073 25.6564 14.1265 25.6564 13.7802V13.7802Z" fill="#008CFF"/>
<path d="M25.8138 6.46657L22.4751 10.3766H25.647C25.9934 10.3766 26.2741 10.6573 26.2741 11.0036V11.5591C26.2741 11.9054 25.9934 12.1861 25.647 12.1861H20.5566C20.2741 12.1861 19.9984 12.0681 19.8233 11.8465C19.5486 11.4989 19.5662 11.0217 19.8383 10.6985L24.3941 5.3461C24.5992 5.10517 24.9519 5.05501 25.216 5.22931L25.6825 5.53712C25.9967 5.74446 26.0582 6.18024 25.8138 6.46657V6.46657Z" fill="#008CFF"/>
<path d="M23.5894 6.29142L21.5085 8.73618C21.0146 9.31642 21.4269 10.209 22.189 10.209H22.2061C22.4676 10.209 22.7158 10.0945 22.8856 9.89564L24.9505 7.47751C25.2599 7.11509 25.2387 6.57571 24.9017 6.23876C24.5328 5.86986 23.9276 5.89415 23.5894 6.29142V6.29142Z" fill="#27B2FF"/>
<path d="M22.4205 7.66473L22.2681 7.84387C21.968 8.19645 21.9867 8.7209 22.3129 9.04941C22.3171 9.05371 22.3214 9.05793 22.3257 9.06222C22.6937 9.43277 23.2992 9.41129 23.6384 9.01418L23.7911 8.83527C24.0929 8.48184 24.0726 7.95606 23.7446 7.62668C23.7403 7.62231 23.736 7.61801 23.7317 7.61363C23.3636 7.24403 22.7585 7.26754 22.4205 7.66473V7.66473Z" fill="#5CCEFF"/>
<path d="M17.5639 6.39243C17.4643 6.70079 17.5117 7.04634 17.7179 7.29634C17.995 7.63251 18.0142 8.14868 17.7073 8.51313L16.8088 9.58009C16.3132 10.1685 16.7316 11.0677 17.5009 11.0677C17.7678 11.0677 18.021 10.9499 18.193 10.7457L19.2281 9.51657C20.0257 8.56938 20.0525 7.17274 19.2486 6.23087C19.1814 6.15212 19.1103 6.07673 19.0358 6.00493C18.5608 5.5479 17.7663 5.76509 17.5639 6.39243V6.39243Z" fill="#27B2FF"/>
<path d="M17.6048 11.4441L18.1784 10.763C18.5334 10.3414 18.4323 9.7032 17.9644 9.41203C17.5825 9.17437 17.084 9.25336 16.7942 9.59742L16.2207 10.2785C15.8988 10.6609 15.9478 11.2318 16.3302 11.5536C16.7124 11.8752 17.2831 11.8263 17.6048 11.4441V11.4441Z" fill="#5CCEFF"/>
<path d="M20.7032 22.1669C20.2479 21.7116 20.2479 20.9735 20.7032 20.5182L30.1961 11.0252C30.6515 10.5699 31.3896 10.5699 31.8449 11.0252C32.3002 11.4805 32.3002 12.2186 31.8449 12.674L22.3519 22.1669C21.8966 22.6222 21.1584 22.6222 20.7032 22.1669Z" fill="#706C64"/>
<path d="M28.869 12.3523L23.6877 17.5335C23.2373 17.9839 23.2367 18.7142 23.6869 19.1649C23.6925 19.1706 23.6981 19.1763 23.7038 19.1819C24.1544 19.6331 24.8856 19.6332 25.3365 19.1824L30.5176 14.0013C30.9646 13.5543 30.969 12.8309 30.5273 12.3786C30.5219 12.373 30.5165 12.3675 30.511 12.3619C30.0619 11.902 29.3236 11.8978 28.869 12.3523V12.3523Z" fill="#8F8B81"/>
<path d="M27.6376 13.5838L26.4806 14.7408C26.0331 15.1883 26.0297 15.9124 26.4726 16.3646C26.478 16.3702 26.4834 16.3757 26.4889 16.3813C26.938 16.8399 27.6753 16.8436 28.1292 16.3897L29.2865 15.2324C29.7384 14.7805 29.7376 14.0467 29.2832 13.5972C29.2767 13.5908 29.2703 13.5845 29.2639 13.5781C28.813 13.132 28.0861 13.1353 27.6376 13.5838Z" fill="#B5B1A4"/>
<path d="M21.891 31.0791C18.4592 30.6554 15.1377 29.1271 12.5034 26.4928C9.86841 23.8578 8.34005 20.5363 7.91638 17.1045L11.0381 13.9828L3.19403 6.13879L1.95622 7.37653C1.33739 7.99536 0.898252 8.77129 0.689034 9.62106C-1.228 17.4065 0.854971 25.9752 6.93794 32.0582C13.0208 38.1411 21.5875 40.2234 29.3722 38.307C30.222 38.0978 30.998 37.6586 31.6169 37.0398L32.856 35.8007L25.0126 27.9574L21.891 31.0791Z" fill="#29E088"/>
<path d="M23.4933 38.9944C25.4683 39.0111 27.4443 38.7816 29.3723 38.307C30.2215 38.0981 30.9982 37.6588 31.617 37.04L32.856 35.8009L28.2997 31.2445C27.9509 34.5015 26.1198 37.3138 23.4933 38.9944Z" fill="#0CC166"/>
<path d="M32.4149 36.2419L34.3351 34.3217C34.9096 33.7472 34.9096 32.8158 34.3351 32.2414L28.5721 26.4783C27.9976 25.9039 27.0662 25.9039 26.4918 26.4783L24.5715 28.3986L32.4149 36.2419Z" fill="#FFE059"/>
<path d="M2.75293 6.57983L10.5969 14.4238L12.5172 12.5036C13.0916 11.9291 13.0916 10.9977 12.5172 10.4233L6.75348 4.6596C6.17902 4.08515 5.24762 4.08515 4.67316 4.6596L2.75293 6.57983Z" fill="#FFE059"/>
<path d="M12.2511 34.4778C13.0029 33.726 12.8862 32.4845 12.0184 31.8704C11.0812 31.2072 10.1935 30.4595 9.36508 29.6311C6.85461 27.1206 5.04336 23.9933 4.12836 20.5875C3.43773 18.0185 3.2632 15.3292 3.60265 12.6972C3.69703 11.9655 3.30062 11.2607 2.63289 10.947C2.62219 10.942 2.61148 10.937 2.60086 10.932C1.56172 10.4427 0.344608 11.1134 0.197264 12.2525C-0.712736 19.2881 1.53398 26.6542 6.93805 32.0583C7.9164 33.0366 8.95898 33.9115 10.0523 34.6829C10.7288 35.1602 11.6522 35.0768 12.2377 34.4913L12.2511 34.4778Z" fill="#79FF79"/>
<path d="M3.57262 23.7798C4.35895 23.4106 4.73317 22.5112 4.45903 21.6869C4.33841 21.3241 4.22809 20.9575 4.12872 20.5876C3.67106 18.885 3.44091 17.1297 3.43637 15.3732C3.43411 14.5006 2.75676 13.779 1.88778 13.7002C1.87637 13.6991 1.86497 13.6981 1.85356 13.697C0.858249 13.6073 0.000124045 14.395 0.00379592 15.3943C0.0129365 17.898 0.416843 20.4003 1.21481 22.8004C1.53426 23.7614 2.62489 24.2248 3.54161 23.7944L3.57262 23.7798Z" fill="#C2FFC2"/>
<path d="M34.3353 34.3216L32.4152 36.2418L28.1886 32.0152C28.3023 31.3974 28.3611 30.76 28.3611 30.1098C28.3611 28.6702 28.0729 27.2973 27.5492 26.047C27.9199 26.0519 28.2896 26.1961 28.572 26.4785L34.3353 32.2418C34.91 32.8154 34.91 33.7469 34.3353 34.3216V34.3216Z" fill="#FFC751"/>
<path d="M12.5168 12.5041L10.5967 14.4242L9.37972 13.2073C9.62878 12.4394 9.76214 11.6206 9.76214 10.7703C9.76214 9.09831 9.24433 7.54596 8.36081 6.26721L12.5168 10.4232C13.0915 10.9978 13.0915 11.9295 12.5168 12.5041V12.5041Z" fill="#FFC751"/>
<path d="M32.0279 30.3218C36.431 30.3218 40.0004 26.7524 40.0004 22.3493C40.0004 17.9462 36.431 14.3768 32.0279 14.3768C27.6249 14.3768 24.0555 17.9462 24.0555 22.3493C24.0555 26.7524 27.6249 30.3218 32.0279 30.3218Z" fill="#FE255F"/>
<path d="M39.9997 22.3492C39.9997 26.7522 36.4306 30.3221 32.0276 30.3221C29.0917 30.3221 26.5263 28.7351 25.1432 26.3714C26.5122 27.7099 28.3848 28.535 30.4502 28.535C34.6442 28.535 38.0444 25.1348 38.0444 20.9408C38.0444 18.5659 36.9544 16.4455 35.2469 15.0542C38.0466 16.2907 39.9997 19.0919 39.9997 22.3492V22.3492Z" fill="#E01152"/>
<path d="M24.0547 22.3491C24.0547 22.7591 24.0857 23.1619 24.1455 23.5552C24.2838 24.4648 25.3906 24.8367 26.0411 24.1862C26.2933 23.9341 26.4093 23.577 26.3544 23.2248C26.31 22.9393 26.2867 22.647 26.2867 22.3492C26.2867 19.6058 28.2217 17.3065 30.7989 16.7426C31.3128 16.6302 31.6804 16.1773 31.6804 15.6513C31.6804 14.9441 31.0301 14.4078 30.3389 14.5569C26.7468 15.3313 24.0547 18.5255 24.0547 22.3491V22.3491Z" fill="#FC709B"/>
<path d="M27.5217 18.3051C27.7917 18.3051 28.0525 18.2074 28.2557 18.0297C28.6535 17.6818 29.0993 17.3875 29.5821 17.1589C29.967 16.9767 30.2063 16.5823 30.2063 16.1565C30.2063 15.3334 29.3477 14.7957 28.6046 15.1496C27.9405 15.4658 27.3271 15.8712 26.7799 16.3502C26.0058 17.0279 26.493 18.3051 27.5217 18.3051Z" fill="#F7A6C1"/>
<path d="M30.8626 26.9893L30.3776 26.8038C30.0486 26.6779 29.8839 26.3091 30.0098 25.9801L32.5035 19.462H29.9872C29.6349 19.462 29.3494 19.1764 29.3494 18.8241V18.3049C29.3494 17.9527 29.6349 17.6671 29.9872 17.6671H33.782C34.0112 17.6671 34.2379 17.743 34.4078 17.8969C34.6893 18.1517 34.7762 18.5447 34.6459 18.8853L31.6862 26.6216C31.5604 26.9506 31.1915 27.1152 30.8626 26.9893Z" fill="#FFAF40"/>
<path d="M32.4792 24.5486L33.706 21.3421C33.9308 20.7546 33.4969 20.124 32.8678 20.124C32.4958 20.124 32.1624 20.3534 32.0295 20.7008L30.8028 23.9072C30.578 24.4948 31.0119 25.1254 31.641 25.1254C32.013 25.1253 32.3463 24.8959 32.4792 24.5486Z" fill="#FFC751"/>
<path d="M33.2603 22.5075L33.3025 22.3973C33.4707 21.9575 33.267 21.4618 32.837 21.2697C32.8315 21.2672 32.826 21.2647 32.8205 21.2623C32.3544 21.0537 31.8088 21.278 31.6264 21.7551L31.584 21.8657C31.4131 22.3126 31.6268 22.8143 32.0671 23.0014C32.0726 23.0037 32.0781 23.0061 32.0836 23.0084C32.5467 23.2048 33.0805 22.9773 33.2603 22.5075V22.5075Z" fill="#FFE059"/>
</g>
<defs>
<clipPath id="clip0">
<rect width="40" height="40" fill="white"/>
</clipPath>
</defs>
</svg>
