<svg width="40" height="40" viewBox="0 0 40 40" fill="none" xmlns="http://www.w3.org/2000/svg">
<g clip-path="url(#clip0)">
<path d="M3.08253 29.8048H33.9886C36.9057 29.8048 39.265 32.193 39.218 35.1208C39.1814 37.4001 37.2995 39.2188 35.0198 39.2188H4.12855C5.88996 39.2188 7.31785 37.7909 7.31785 36.0295V32.994C7.31785 31.2326 5.88996 29.8047 4.12855 29.8047H3.08253V29.8048Z" fill="#FFC66C"/>
<path d="M35.1562 23.772H38.2812V18.0298C38.2812 17.1668 37.5817 16.4673 36.7188 16.4673C35.8558 16.4673 35.1562 17.1668 35.1562 18.0298V23.772Z" fill="#FFC66C"/>
<path d="M8.3958 14.3265V19.3015C8.3958 19.88 8.70072 20.4156 9.19806 20.7109L19.1632 26.6278C19.6791 26.934 20.321 26.934 20.8369 26.6278L30.802 20.7109C31.2994 20.4156 31.6043 19.88 31.6043 19.3015V14.538" fill="#5A54E0"/>
<path d="M36.3676 11.4983L20.7364 20.7794C20.2825 21.0488 19.7177 21.0488 19.2638 20.7794L3.63254 11.4983C3.16434 11.2204 3.16434 10.5426 3.63254 10.2646L19.2638 0.983584C19.7176 0.714131 20.2825 0.714131 20.7364 0.983584L36.3676 10.2646C36.8358 10.5426 36.8358 11.2204 36.3676 11.4983Z" fill="#6A80FF"/>
<path d="M19.9999 13.0128C21.2469 13.0128 22.2578 12.1501 22.2578 11.0859C22.2578 10.0217 21.2469 9.15906 19.9999 9.15906C18.7529 9.15906 17.742 10.0217 17.742 11.0859C17.742 12.1501 18.7529 13.0128 19.9999 13.0128Z" fill="#72D8FF"/>
<path d="M3.08262 33.2207V29.8048C5.97106 29.8048 8.31262 32.1464 8.31262 35.0348C8.31262 37.3456 6.43934 39.2189 4.12856 39.2189C2.27997 39.2189 0.781372 37.7203 0.781372 35.8717C0.781372 34.3928 1.98028 33.1939 3.45918 33.1939C4.64231 33.1939 5.60137 34.153 5.60137 35.3361" fill="#FEDA9B"/>
<path d="M3.23365 12.1702L7.61451 14.7713V19.3016C7.61451 20.1514 8.0685 20.9489 8.7992 21.3827L18.7644 27.2996C19.1454 27.5259 19.5728 27.639 20.0001 27.639C20.4273 27.639 20.8546 27.5259 21.2358 27.2996L31.2008 21.3827C31.9316 20.9489 32.3855 20.1515 32.3855 19.3016V14.7713L35.9374 12.6624V15.8206C35.0281 16.1431 34.3749 17.0114 34.3749 18.0299V23.7721C34.3749 24.2036 34.7247 24.5534 35.1562 24.5534H38.2812C38.7126 24.5534 39.0624 24.2036 39.0624 23.7721V18.0299C39.0624 17.0115 38.4092 16.1431 37.4999 15.8206V10.8815V10.8814C37.4999 10.3473 37.2257 9.86556 36.7664 9.59282L21.1351 0.311807C20.435 -0.103896 19.5651 -0.103975 18.8649 0.311807L3.23365 9.5929C2.77436 9.86563 2.50014 10.3474 2.50014 10.8815C2.50014 11.4156 2.77428 11.8974 3.23365 12.1702ZM9.59686 20.0392C9.33787 19.8855 9.17701 19.6028 9.17701 19.3017V15.6991L18.8649 21.4513C18.9787 21.5189 19.0974 21.5743 19.2188 21.6199V25.7523L9.59686 20.0392ZM30.823 19.3016C30.823 19.6027 30.6622 19.8854 30.4031 20.0392L20.7813 25.7523V21.6199C20.9027 21.5743 21.0214 21.5188 21.1352 21.4513L30.8231 15.6991V19.3016H30.823V19.3016ZM37.5 22.9908H35.9375V18.0299C35.9375 17.5991 36.2879 17.2486 36.7187 17.2486C37.1495 17.2486 37.5 17.5991 37.5 18.0299V22.9908ZM19.6626 1.6554C19.8708 1.53188 20.1294 1.53181 20.3374 1.6554L35.8762 10.8816L20.3374 20.1077C20.1294 20.2313 19.8708 20.2313 19.6626 20.1077L4.12381 10.8815L19.6626 1.6554Z" fill="black"/>
<path d="M23.0392 11.0859C23.0392 9.59265 21.6759 8.37781 20.0001 8.37781C18.3243 8.37781 16.9609 9.59265 16.9609 11.0859C16.9609 12.5792 18.3242 13.7941 20 13.7941C21.6758 13.7941 23.0392 12.5792 23.0392 11.0859ZM18.5234 11.0859C18.5234 10.4649 19.1996 9.94031 20 9.94031C20.8004 9.94031 21.4767 10.4649 21.4767 11.0859C21.4767 11.7069 20.8004 12.2316 20 12.2316C19.1996 12.2316 18.5234 11.7069 18.5234 11.0859Z" fill="black"/>
<path d="M33.9887 29.0236H17.4219C16.9905 29.0236 16.6407 29.3733 16.6407 29.8048C16.6407 30.2363 16.9905 30.5861 17.4219 30.5861H20.0001C22.4531 30.5861 24.4488 32.5818 24.4488 35.0348C24.4488 36.9111 22.9223 38.4376 21.046 38.4376H7.73953C8.5782 37.5482 9.09383 36.3509 9.09383 35.0348C9.09383 33.2734 8.33226 31.6864 7.12117 30.5861H10.4948C10.9263 30.5861 11.2761 30.2363 11.2761 29.8048C11.2761 29.3733 10.9263 29.0236 10.4948 29.0236H3.08258C3.06726 29.0236 3.05398 29.0243 3.04179 29.0256C2.62937 29.0469 2.30133 29.3871 2.30133 29.8048C2.30133 30.2051 2.60258 30.5346 2.99062 30.5802C3.01 30.5841 3.03969 30.5861 3.08258 30.5861C5.53562 30.5861 7.53133 32.5818 7.53133 35.0348C7.53133 36.9111 6.00484 38.4376 4.12851 38.4376C2.71367 38.4376 1.56258 37.2865 1.56258 35.8717C1.56258 34.8259 2.41336 33.9751 3.45906 33.9751C4.20945 33.9751 4.82 34.5857 4.82 35.3361C4.82 35.7675 5.16976 36.1173 5.60125 36.1173C6.03273 36.1173 6.3825 35.7675 6.3825 35.3361C6.3825 33.724 5.07101 32.4126 3.45906 32.4126C1.55172 32.4126 7.62939e-05 33.9643 7.62939e-05 35.8717C0.000154419 38.148 1.85211 40 4.12851 40H35.0346C37.7725 40 39.9999 37.7726 39.9999 35.0347C40 31.7202 37.3033 29.0236 33.9887 29.0236ZM35.0347 38.4375H24.6569C25.4956 37.5481 26.0112 36.3508 26.0112 35.0347C26.0112 33.2733 25.2497 31.6864 24.0386 30.586H33.9886C36.4416 30.586 38.4373 32.5817 38.4373 35.0347C38.4375 36.9111 36.9109 38.4375 35.0347 38.4375Z" fill="black"/>
<path d="M13.4322 29.2525C13.2868 29.3978 13.2032 29.5993 13.2032 29.8048C13.2032 30.0103 13.2868 30.2118 13.4322 30.3572C13.5775 30.5025 13.779 30.5861 13.9845 30.5861C14.19 30.5861 14.3915 30.5025 14.5368 30.3572C14.6822 30.2118 14.7657 30.0103 14.7657 29.8048C14.7657 29.5993 14.6822 29.3978 14.5368 29.2525C14.3915 29.1072 14.19 29.0236 13.9845 29.0236C13.779 29.0236 13.5775 29.1072 13.4322 29.2525Z" fill="black"/>
</g>
<defs>
<clipPath id="clip0">
<rect width="40" height="40" fill="white"/>
</clipPath>
</defs>
</svg>
