<svg width="40" height="40" viewBox="0 0 40 40" fill="none" xmlns="http://www.w3.org/2000/svg">
<path d="M33.125 14.375H35.625V33.125H33.125V14.375Z" fill="#FF3051"/>
<path d="M35.625 11.875V14.375H33.125V11.875C33.126 11.5438 33.258 11.2264 33.4922 10.9922C33.7264 10.758 34.0438 10.626 34.375 10.625C34.7058 10.6275 35.0223 10.7599 35.2562 10.9938C35.4901 11.2277 35.6225 11.5442 35.625 11.875V11.875Z" fill="#898890"/>
<path d="M35.625 33.125L34.375 38.125L33.125 33.125H35.625Z" fill="#898890"/>
<path d="M34.375 14.375H35.625V33.125H34.375V14.375Z" fill="#CD2A00"/>
<path d="M35.625 11.875V14.375H34.375V10.625C34.7058 10.6275 35.0223 10.7599 35.2562 10.9938C35.4901 11.2277 35.6225 11.5442 35.625 11.875V11.875Z" fill="#57565C"/>
<path d="M35.625 33.125L34.375 38.125V33.125H35.625Z" fill="#57565C"/>
<path d="M29.375 1.875H9.375C8.68464 1.875 8.125 2.43464 8.125 3.125V36.875C8.125 37.5654 8.68464 38.125 9.375 38.125H29.375C30.0654 38.125 30.625 37.5654 30.625 36.875V3.125C30.625 2.43464 30.0654 1.875 29.375 1.875Z" fill="#FEE9AB"/>
<path d="M25 6.875V10.8812C24.9993 11.5876 24.8491 12.2858 24.5593 12.9299C24.2696 13.5741 23.8468 14.1496 23.3188 14.6187L19.375 18.125L15.4313 14.6187C14.9032 14.1496 14.4804 13.5741 14.1907 12.9299C13.9009 12.2858 13.7507 11.5876 13.75 10.8812V6.875L19.375 4.375L25 6.875Z" fill="#FFD422"/>
<path d="M14.375 18.75C14.375 19.2473 14.1775 19.7242 13.8258 20.0758C13.4742 20.4275 12.9973 20.625 12.5 20.625H8.125V28.125H3.75625L1.875 26.875V18.125L5 16.875H12.5C12.9973 16.875 13.4742 17.0725 13.8258 17.4242C14.1775 17.7758 14.375 18.2527 14.375 18.75Z" fill="#FFC477"/>
<path d="M14.375 18.75C14.3746 19.0789 14.2884 19.4021 14.125 19.6875C14.0408 19.5469 13.94 19.4168 13.825 19.3C13.6512 19.1256 13.4447 18.9873 13.2173 18.8929C12.9899 18.7985 12.7462 18.75 12.5 18.75H5L1.875 20V18.125L5 16.875H12.5C12.9973 16.875 13.4742 17.0725 13.8258 17.4242C14.1775 17.7758 14.375 18.2527 14.375 18.75Z" fill="#FFA733"/>
<path d="M25 6.875V10.8812C24.9993 11.5876 24.8491 12.2858 24.5593 12.9299C24.2696 13.5741 23.8468 14.1496 23.3188 14.6187L19.375 18.125L18.125 17.0125L20.8188 14.6187C21.3468 14.1496 21.7696 13.5741 22.0593 12.9299C22.3491 12.2858 22.4993 11.5876 22.5 10.8812V6.875L18.125 4.93125L19.375 4.375L25 6.875Z" fill="#EBBF00"/>
<path d="M30.625 3.125V36.875C30.624 37.2062 30.492 37.5236 30.2578 37.7578C30.0236 37.992 29.7062 38.124 29.375 38.125H26.875C27.2062 38.124 27.5236 37.992 27.7578 37.7578C27.992 37.5236 28.124 37.2062 28.125 36.875V3.125C28.124 2.79378 27.992 2.47642 27.7578 2.24221C27.5236 2.008 27.2062 1.87599 26.875 1.875H29.375C29.7062 1.87599 30.0236 2.008 30.2578 2.24221C30.492 2.47642 30.624 2.79378 30.625 3.125V3.125Z" fill="#FFDE55"/>
<path d="M29.375 1.25H9.375C8.87818 1.25148 8.40212 1.4495 8.05081 1.80081C7.6995 2.15212 7.50148 2.62818 7.5 3.125V16.25H5C4.92075 16.2488 4.84208 16.2637 4.76875 16.2937L1.64375 17.5437C1.52746 17.5901 1.42775 17.6702 1.35755 17.7739C1.28735 17.8775 1.24988 17.9998 1.25 18.125V26.875C1.25053 26.9779 1.27648 27.0792 1.32555 27.1697C1.37462 27.2602 1.44527 27.3371 1.53125 27.3938L3.4125 28.6438C3.51364 28.7132 3.63354 28.7503 3.75625 28.75H7.5V36.875C7.50148 37.3718 7.6995 37.8479 8.05081 38.1992C8.40212 38.5505 8.87818 38.7485 9.375 38.75H29.375C29.8718 38.7485 30.3479 38.5505 30.6992 38.1992C31.0505 37.8479 31.2485 37.3718 31.25 36.875V3.125C31.2485 2.62818 31.0505 2.15212 30.6992 1.80081C30.3479 1.4495 29.8718 1.25148 29.375 1.25V1.25ZM7.4375 21.25H7.5V27.5H3.94375L2.5 26.5375V18.55L5.11875 17.5H12.5C12.8315 17.5 13.1495 17.6317 13.3839 17.8661C13.6183 18.1005 13.75 18.4185 13.75 18.75C13.75 19.0815 13.6183 19.3995 13.3839 19.6339C13.1495 19.8683 12.8315 20 12.5 20H6.875C6.70924 20 6.55027 20.0658 6.43306 20.1831C6.31585 20.3003 6.25 20.4592 6.25 20.625C6.24852 21.1218 6.0505 21.5979 5.69919 21.9492C5.34788 22.3005 4.87182 22.4985 4.375 22.5V23.75C5.09513 23.7491 5.79293 23.4999 6.35078 23.0446C6.90864 22.5892 7.29244 21.9554 7.4375 21.25V21.25ZM30 36.875C30 37.0408 29.9342 37.1997 29.8169 37.3169C29.6997 37.4342 29.5408 37.5 29.375 37.5H9.375C9.20924 37.5 9.05027 37.4342 8.93306 37.3169C8.81585 37.1997 8.75 37.0408 8.75 36.875V21.25H12.5C13.163 21.25 13.7989 20.9866 14.2678 20.5178C14.7366 20.0489 15 19.413 15 18.75C15 18.087 14.7366 17.4511 14.2678 16.9822C13.7989 16.5134 13.163 16.25 12.5 16.25H8.75V3.125C8.75 2.95924 8.81585 2.80027 8.93306 2.68306C9.05027 2.56585 9.20924 2.5 9.375 2.5H29.375C29.5408 2.5 29.6997 2.56585 29.8169 2.68306C29.9342 2.80027 30 2.95924 30 3.125V36.875Z" fill="black"/>
<path d="M19.375 12.5C19.5407 12.4999 19.6997 12.4341 19.8168 12.3168L23.3525 8.78121L22.4687 7.89746L19.375 10.9912L18.0487 9.66496L17.165 10.5487L18.9331 12.3168C19.0503 12.4341 19.2092 12.4999 19.375 12.5V12.5Z" fill="black"/>
<path d="M25.2562 6.30624L19.6312 3.80624C19.5509 3.76919 19.4634 3.75 19.375 3.75C19.2865 3.75 19.1991 3.76919 19.1187 3.80624L13.4937 6.30624C13.3834 6.35469 13.2897 6.43436 13.2242 6.53543C13.1587 6.6365 13.1242 6.75454 13.125 6.87499V10.8812C13.1247 11.675 13.2927 12.4598 13.6181 13.1837C13.9435 13.9077 14.4187 14.5545 15.0125 15.0812L18.9625 18.5937C19.0765 18.6939 19.2231 18.7492 19.375 18.7492C19.5268 18.7492 19.6734 18.6939 19.7875 18.5937L23.7375 15.0812C24.3312 14.5545 24.8065 13.9077 25.1318 13.1837C25.4572 12.4598 25.6253 11.675 25.625 10.8812V6.87499C25.6258 6.75454 25.5912 6.6365 25.5257 6.53543C25.4602 6.43436 25.3665 6.35469 25.2562 6.30624V6.30624ZM24.375 10.8812C24.3742 11.4988 24.243 12.1092 23.9899 12.6726C23.7367 13.2359 23.3675 13.7393 22.9062 14.15L19.375 17.2875L15.8437 14.15C15.3825 13.7393 15.0132 13.2359 14.7601 12.6726C14.507 12.1092 14.3757 11.4988 14.375 10.8812V7.28124L19.375 5.05624L24.375 7.28124V10.8812Z" fill="black"/>
<path d="M38.125 13.75H36.25V11.875C36.25 11.3777 36.0525 10.9008 35.7008 10.5492C35.3492 10.1975 34.8723 10 34.375 10C33.8777 10 33.4008 10.1975 33.0492 10.5492C32.6975 10.9008 32.5 11.3777 32.5 11.875V33.125C32.5001 33.1756 32.5064 33.226 32.5187 33.275L33.7687 38.275C33.8026 38.4101 33.8807 38.5301 33.9905 38.6158C34.1004 38.7015 34.2357 38.7481 34.375 38.7481C34.5143 38.7481 34.6496 38.7015 34.7595 38.6158C34.8693 38.5301 34.9474 38.4101 34.9813 38.275L36.2313 33.275C36.2436 33.226 36.2499 33.1756 36.25 33.125V15H37.5V20.625H38.75V14.375C38.75 14.2092 38.6842 14.0503 38.5669 13.9331C38.4497 13.8158 38.2908 13.75 38.125 13.75ZM34.375 35.55L33.925 33.75H34.825L34.375 35.55ZM35 32.5H33.75V15H35V32.5ZM35 13.75H33.75V11.875C33.75 11.7092 33.8158 11.5503 33.9331 11.4331C34.0503 11.3158 34.2092 11.25 34.375 11.25C34.5408 11.25 34.6997 11.3158 34.8169 11.4331C34.9342 11.5503 35 11.7092 35 11.875V13.75Z" fill="black"/>
<path d="M11.25 23.75H13.75V25H11.25V23.75Z" fill="black"/>
<path d="M15 23.75H27.5V25H15V23.75Z" fill="black"/>
<path d="M11.25 27.5H13.75V28.75H11.25V27.5Z" fill="black"/>
<path d="M15 27.5H27.5V28.75H15V27.5Z" fill="black"/>
<path d="M11.25 31.25H13.75V32.5H11.25V31.25Z" fill="black"/>
<path d="M15 31.25H27.5V32.5H15V31.25Z" fill="black"/>
<path d="M11.25 35H13.75V36.25H11.25V35Z" fill="black"/>
<path d="M15 35H27.5V36.25H15V35Z" fill="black"/>
</svg>
